<?xml version="1.0" encoding="UTF-8"?>
<svg id="Layer_2" xmlns="http://www.w3.org/2000/svg" version="1.1" viewBox="0 0 126 42">
  <!-- Generator: Adobe Illustrator 29.2.1, SVG Export Plug-In . SVG Version: 2.1.0 Build 116)  -->
  <defs>
    <style>
      .st0 {
        fill: #268270;
      }

      .st1 {
        fill: #fff;
      }
    </style>
  </defs>
  <path class="st1" d="M56.2,18.2v3.1c0,.9.4,1.3,1.3,1.2.9,0,1.3-.3,1.2-.9V1.7h5.8v17.1c0,.9,0,1.8,0,2.7,0,.9-.3,1.8-.7,2.6-.6,1.1-1.5,1.8-2.5,2.2-1.1.4-2.2.6-3.5.6s-2.7-.3-3.8-1c-1.1-.7-1.8-1.7-2.2-3-.1-.6-.2-1.1-.2-1.7,0-.6,0-1.1,0-1.6v-1.4h4.7Z"/>
  <path class="st1" d="M68.1,26.4V1.7h5.8v24.6h-5.8Z"/>
  <path class="st1" d="M77.1,26.4V1.7h5.8v19.7h7.1v4.9h-12.9Z"/>
  <path class="st1" d="M92.9,26.4V1.7h5.8v19.7h7.1v4.9h-12.9Z"/>
  <g>
    <path class="st1" d="M51.6,33.5c0-.5,0-1,0-1.5.3,0,.7,0,1,0s.7,0,1,0,.7,0,1,0c.4,0,.7,0,1.2,0,0,.1,0,.2,0,.3s0,.2,0,.3c-.2,0-.5,0-.8,0-.3,0-.6,0-.9,0-.3,0-.6,0-.9,0h-.7c0,.3,0,.5,0,.8v2.2c.5,0,1,0,1.5,0,.5,0,1,0,1.5,0,0,.1,0,.2,0,.3s0,.2,0,.3c-.2,0-.4,0-.7,0-.2,0-.5,0-.8,0h-1.6v1c0,.5,0,1,0,1.5s0,1,0,1.5c-.2,0-.4,0-.6,0s-.4,0-.6,0c0-.5,0-1,0-1.5,0-.5,0-1,0-1.5v-2c0-.5,0-1,0-1.5h0Z"/>
    <path class="st1" d="M56.2,37.2c0-.5,0-1,.3-1.3.2-.4.4-.7.7-.9s.6-.4.9-.5c.3-.1.7-.2,1-.2s.7,0,1,.2.6.3.9.5.5.5.7.9.3.8.3,1.3,0,1-.3,1.3-.4.7-.7.9-.6.4-.9.5c-.3,0-.7.1-1,.1s-.7,0-1-.1-.6-.3-.9-.5c-.3-.2-.5-.5-.7-.9s-.3-.8-.3-1.3ZM57.2,37.2c0,.3,0,.6,0,.9,0,.3.2.6.3.8s.3.4.6.6c.2.1.5.2.9.2s.6,0,.9-.2c.2-.1.4-.3.6-.6s.2-.5.3-.8c0-.3,0-.6,0-.9s0-.6,0-.9c0-.3-.2-.6-.3-.8s-.3-.4-.6-.6c-.2-.1-.5-.2-.9-.2s-.6,0-.9.2c-.2.1-.4.3-.6.6-.1.2-.2.5-.3.8,0,.3,0,.6,0,.9Z"/>
    <path class="st1" d="M63.1,38.2c0-.4,0-.8,0-1s0-.6,0-.9v-.9c0-.3,0-.6,0-1,.2,0,.4,0,.5,0s.3,0,.5,0c0,.5,0,1,0,1.5,0,.5,0,1.1,0,1.7s0,.7.1.9.2.4.3.5c.1.1.3.2.4.3s.4.1.6.1c.3,0,.6,0,.8-.2s.4-.3.5-.5c0-.1,0-.2.1-.3,0,0,0-.2,0-.4,0-.2,0-.4,0-.6v-2.5c0-.2,0-.3,0-.4,0,0,.2,0,.2,0,0,0,.2,0,.2,0s.2,0,.2,0c0,0,.2,0,.2,0,0,.6,0,1.2,0,1.7v2.8c0,.3,0,.7,0,1-.2,0-.3,0-.5,0s-.3,0-.5,0c0,0,0-.1,0-.2v-.7h0c-.2.4-.5.6-.8.8-.3.2-.7.3-1,.3-.6,0-1.1-.2-1.4-.5s-.5-.8-.5-1.4h0Z"/>
    <path class="st1" d="M73,35.3c-.2-.3-.5-.4-.9-.4s-.9.2-1.2.5-.4.8-.4,1.4v1c0,.3,0,.7,0,1.1,0,.4,0,.7,0,1-.2,0-.4,0-.5,0s-.3,0-.5,0c0-.3,0-.7,0-1,0-.4,0-.8,0-1.1v-1.2c0-.3,0-.7,0-1.1,0-.4,0-.7,0-1.1.2,0,.4,0,.5,0s.1,0,.2,0,.2,0,.3,0c0,.3,0,.6,0,.9h0c.2-.3.5-.6.8-.8.3-.2.7-.3,1.1-.3s.4,0,.7,0c.2,0,.4.2.6.3s.3.4.4.6.2.6.2,1,0,.7,0,1c0,.4,0,.7,0,1.1v1.1c0,.1,0,.2,0,.3-.2,0-.3,0-.5,0s-.3,0-.5,0c0-.4,0-.8,0-1.2,0-.4,0-.9,0-1.3v-.7c0-.6-.1-1-.3-1.3h0Z"/>
    <path class="st1" d="M79.9,38.8c0,.1-.1.3-.3.4s-.2.3-.4.4c-.2.1-.3.2-.6.3s-.5.1-.8.1-.6,0-.9-.2c-.3,0-.5-.3-.8-.5s-.4-.5-.5-.9c-.1-.4-.2-.8-.2-1.3s0-.9.2-1.3.3-.7.6-.9c.2-.2.5-.4.8-.5s.6-.2.9-.2c.9,0,1.5.4,1.8,1.2h0v-3.6c0-.2,0-.5,0-.6,0,0,.2,0,.3,0s.2,0,.3,0,.2,0,.3,0,.2,0,.3,0c0,.3,0,.6,0,1.1s0,1,0,1.6c0,.6,0,1.1,0,1.7v3.1c0,.4,0,.9,0,1.3-.2,0-.3,0-.5,0s-.3,0-.4,0v-1.1s0,0,0,0h0ZM76.6,37.3c0,.5,0,.8.1,1.1,0,.3.2.5.4.7s.3.3.5.4.4.1.6.1c.3,0,.6,0,.8-.2.2-.2.4-.3.5-.6.1-.2.3-.5.3-.8,0-.3,0-.6,0-.9,0-.7-.1-1.3-.4-1.7-.3-.4-.7-.6-1.3-.6s-.5,0-.7.2c-.2.1-.4.3-.5.5s-.2.5-.3.8c0,.3,0,.6,0,1h0Z"/>
    <path class="st1" d="M82.5,35c.3-.3.7-.4,1-.5s.6-.1.9-.1.5,0,.8.1.4.2.6.3c.2.2.3.3.4.5s.1.4.1.7c0,.4,0,.9,0,1.3,0,.4,0,.9,0,1.4v.3c0,.1,0,.2,0,.3,0,0,0,.1.1.2s.1,0,.3,0h.1s0,0,.1,0v.3c0,0-.2,0-.3,0-.1,0-.3,0-.4,0-.3,0-.4,0-.6-.2s-.2-.3-.2-.5c-.3.3-.5.5-.8.6s-.6.2-1,.2-.4,0-.6,0-.3-.1-.5-.3c-.1-.1-.3-.3-.3-.4s-.1-.4-.1-.6c0-.5.1-.8.4-1.1.3-.3.7-.4,1.2-.5.4,0,.7-.1,1-.2s.4-.1.5-.2c.1,0,.2-.1.2-.2s0-.2,0-.3c0-.2,0-.4,0-.6s-.1-.3-.2-.5-.2-.2-.4-.3-.4-.1-.6-.1-.6,0-.9.2-.5.3-.6.6h-.1v-.6h0ZM85.4,37c-.1,0-.3,0-.5.1-.2,0-.3,0-.5,0-.2,0-.4,0-.5.1s-.3.1-.5.2c-.1,0-.2.2-.3.3,0,.1-.1.3-.1.5,0,.4.1.6.3.8s.4.3.7.3.6,0,.8-.2c.2-.2.4-.3.6-.6v-1.7s0,0,0,0Z"/>
    <path class="st1" d="M89.3,32.9c0,.3,0,.6,0,.9s0,.6,0,.8h.5c.2,0,.5,0,.8,0h0v.4h0c0,.1-.2.1-.3.1h-.9s0,.2,0,.4c0,.2,0,.5,0,.8s0,.6,0,.9v.9c0,.2,0,.4,0,.6,0,.2,0,.4.1.6,0,.2.2.3.3.4.1,0,.3.2.5.2s.1,0,.3,0c.1,0,.2,0,.3,0v.3c-.1,0-.3,0-.4,0s-.3,0-.5,0c-.5,0-.8-.1-1.1-.4s-.3-.6-.3-1v-.7c0-.2,0-.5,0-.8,0-.3,0-.6,0-1v-1.2h-.6c0,0-.1,0-.2,0,0,0,0,0,0-.1h0v-.3s0,0,0-.1c.3,0,.6,0,.8,0,0-.2,0-.3,0-.6s0-.5,0-.7l1-.4h0,0Z"/>
    <path class="st1" d="M91.6,32.4c0-.2,0-.3.2-.4s.3-.2.4-.2.3,0,.4.2.2.3.2.4,0,.3-.2.4-.3.2-.4.2-.3,0-.4-.2-.2-.3-.2-.4ZM91.8,36.6c0-.3,0-.7,0-1.1,0-.4,0-.7,0-1.1.2,0,.4,0,.5,0s.3,0,.5,0c0,.3,0,.7,0,1.1,0,.4,0,.8,0,1.1v1.2c0,.3,0,.7,0,1.1,0,.4,0,.7,0,1-.2,0-.3,0-.5,0s-.3,0-.5,0c0-.3,0-.7,0-1,0-.4,0-.8,0-1.1v-1.2Z"/>
    <path class="st1" d="M94.2,37.2c0-.5,0-1,.3-1.3.2-.4.4-.7.7-.9s.6-.4.9-.5c.3-.1.7-.2,1-.2s.7,0,1,.2.6.3.9.5.5.5.7.9.3.8.3,1.3,0,1-.3,1.3c-.2.4-.4.7-.7.9s-.6.4-.9.5c-.3,0-.7.1-1,.1s-.7,0-1-.1-.6-.3-.9-.5c-.3-.2-.5-.5-.7-.9s-.3-.8-.3-1.3ZM95.2,37.2c0,.3,0,.6,0,.9,0,.3.2.6.3.8s.3.4.6.6c.2.1.5.2.9.2s.6,0,.9-.2c.2-.1.4-.3.6-.6s.2-.5.3-.8c0-.3,0-.6,0-.9s0-.6,0-.9c0-.3-.2-.6-.3-.8s-.3-.4-.6-.6c-.2-.1-.5-.2-.9-.2s-.6,0-.9.2c-.2.1-.4.3-.6.6s-.2.5-.3.8c0,.3,0,.6,0,.9Z"/>
    <path class="st1" d="M104.6,35.3c-.2-.3-.5-.4-.9-.4s-.9.2-1.2.5-.4.8-.4,1.4v1c0,.3,0,.7,0,1.1,0,.4,0,.7,0,1-.2,0-.3,0-.5,0s-.3,0-.5,0c0-.3,0-.7,0-1,0-.4,0-.8,0-1.1v-1.2c0-.3,0-.7,0-1.1,0-.4,0-.7,0-1.1.2,0,.4,0,.5,0s.1,0,.2,0c0,0,.2,0,.3,0,0,.3,0,.6,0,.9h0c.2-.3.5-.6.8-.8.3-.2.7-.3,1.1-.3s.4,0,.7,0,.4.2.6.3.3.4.4.6c.1.3.2.6.2,1s0,.7,0,1c0,.4,0,.7,0,1.1v1.1c0,.1,0,.2,0,.3-.2,0-.3,0-.5,0s-.3,0-.5,0c0-.4,0-.8,0-1.2,0-.4,0-.9,0-1.3v-.7c0-.6-.1-1-.3-1.3h0Z"/>
  </g>
  <rect class="st0" x="1.9" y=".7" width="40.6" height="40.6" rx="3" ry="3"/>
  <g>
    <path class="st1" d="M21.1,2.7c-.4,0-1.1.1-1.1.5-.4,0-.7.4-.7.6-.1.3-.1.7-.2,1,0,.2,0,1.4,0,1.8,0,.8-.2,1.4-.3,1.5-.6.4-.8.5-.9.8,0,.3-.1,1,0,1.3,0,.7.2,1.4.4,1.9.3.8.6,1.7.8,2.4s.1,2.6,0,3.4c-.2.8-.3,1.1-.4,1.3,0,0,0,0,.1.1-.1.3-.2.7-.3,1.1,0,.3,0,1,0,1.5,0,.6.4,2.2.5,2.7s.1,1.5.1,1.9c0,.5,0,1,0,1.8,0,.1.3.2.4.2,0,.4-.2,1.2-.2,1.4,0,1.7.3,2.7.6,3.7,0,.3.4,1.3.4,1.4,0,.1,0,.2-.1.3-.2.1-.3.5-.2.7,0,.2.2.4.2.5,0,.2,0,.5,0,.6,0,.2,0,.6,0,.7,0,0,.2,0,.2,0s0-.5,0-.5,0-.2,0-.2c0,0,0,.1.1.3s0,.3,0,.4,0,.3,0,.3c0,0,.2.3.4.3.8.2,1.3.2,1.7,0,0,0,.1,0,.2-.2,0-.1,0-.2,0-.3,0,0-.2-.2-.2-.3.4,0,.8.1,1.1,0,0,0,.2,0,.2-.1,0-.1.1-.3,0-.3-.2-.1-.6-.5-.8-.7s-.3-.5-.4-.6c0-.2-.2-.6-.3-.8,0-.1,0-.7,0-.8,0-.4.1-1.8.2-2,0-.3.1-1.2.2-1.5,0-.4,0-1.6,0-1.8v-1.3c1-.2,1.3-.4,1.5-.5.1,0-.2-1.2,0-3.1,0-.2.2-2.1.2-3.1,0-.9-.1-1.6-.2-1.8,0-.4,0-.6,0-.7,0,0,.2,0,.2-.1,0-.4-.3-1.1-.5-2.9,0-.5,0-.8,0-1,.3,0,.7.2.9.2s.6,0,.7-.1c.2,0,.4-.2.5-.4.1-.2.2-.4.3-.5,0,0,0-.4,0-.5,0,0-.1-.3-.3-.6,0,0,0,0,0,0,.2,0,.2-.2,0-.2h-.2s0,0,0,0c0,0,0,0,.1,0,.2,0,.2-.2,0-.2,0,0,0,0-.3,0h0s0,0,0,0c0,0,.1,0,.2,0,.2,0,.2-.2,0-.2,0,0-.2,0-.3,0,0,0,0-.1-.1-.2.3,0,.2-.2,0-.3,0,0-.1,0-.2,0,0-.1-.7-1.4-.9-2.1,0-.1-.2-.5-.3-.6,0,0-.3-.4-.3-.5,0,0-.4-.2-.5-.2-.2,0-.6-.1-.8-.2-.3-.5-.5-1.1-.5-1.1,0,0,0,0,0,0,0,0,.2-.2.3-.4,0-.1.1-.3.2-.7.1-.1.2-.2.2-.3,0-.1,0-.2,0-.3v-.5c0,0,0-.3,0-.3s0,0,0,0c0-.1,0-.3-.1-.6s-.3-.7-.5-.8c-.1-.1-.5-.5-1.2-.5h0ZM19.1,5.6c0,.3,0,1.1,0,1.5,0-.4,0-1.1,0-1.5ZM18.9,8.1h0s.1-.4.2-1c0,.4-.1,1-.1,1ZM19.1,8h0s.1-.6.1-1.4c0,.6,0,1.4,0,1.4h0ZM19.2,7.9h0s0-.3,0-1c0,.4,0,1,0,1h0ZM19.2,6.6c0-.5,0-1.3,0-1.9,0,.5,0,1.1,0,1.9ZM19.1,5.5c0-.5,0-1.1,0-1.4,0,.3,0,1,0,1.4ZM22.3,8.3s0-.2-.1-.5c0,.2.2.5.2.5h0s0,0,0,0ZM22.5,8.3s-.2-.3-.3-.8c.1.4.4.8.4.8h0Z"/>
    <path class="st0" d="M22.6,9.1s.3-.1.3-.2c-.1,0-.4-.3-.4-.4-.2-.2-.3-.5-.3-.6,0,0,0,.2,0,.2,0,0,.2.6.4,1.8,0,0,0,0,0,0-1.6-1.9-.8-1.5-2-2.1,0,0-.4-.3-.7-.1.2,0,.6.2.6.3.1.2.3.5.3.5,0,0,0,.3-.2.3-.2.1.6.2.7.2s0,.2-.1.3c0,0,1.2.5,1.9,2.2,0,0,0,0,0,0-.1-.5-.2-.7-.2-1.2,0-.5,0-1,0-1,0,0-.3-.2-.3-.2Z"/>
    <path class="st0" d="M22.8,13.2h0c0,0,.2,0,.4,0,.5.2.4,1.3.2,1.4,0,0-.4,0-.5,0,0,0,0,0,0-.1,0,0,.1,0,.2,0,.2,0,.3-1.2-.2-1.2h0Z"/>
    <path class="st0" d="M24.1,15.3h.3c0,0,0,.1,0,.3,0,0-.3,0-.4,0,.1-.2.1-.4.1-.4Z"/>
  </g>
</svg>